<svg version="1.1" id="Layer_1" xmlns="http://www.w3.org/2000/svg" xmlns:xlink="http://www.w3.org/1999/xlink" x="0px" y="0px"
	 width="100%" viewBox="0 0 500 500" enable-background="new 0 0 500 500" xml:space="preserve">
<path fill="#FEFFFF" opacity="1.000000" stroke="none" 
	d="
M314.000000,501.000000 
	C210.666687,501.000000 107.833359,500.978119 5.000183,501.095490 
	C1.576259,501.099396 0.903036,500.423828 0.905300,497.000000 
	C1.013778,333.000092 1.013757,169.000137 0.905338,5.000255 
	C0.903075,1.576973 1.575768,0.903020 4.999868,0.905285 
	C168.999756,1.013775 332.999725,1.013760 496.999634,0.905354 
	C500.422638,0.903091 501.096985,1.575414 501.094727,4.999748 
	C500.986206,168.999634 500.986237,332.999603 501.094604,496.999512 
	C501.096893,500.422272 500.425934,501.104462 497.000214,501.096924 
	C436.167053,500.963257 375.333466,501.000000 314.000000,501.000000 
z"/>
<path fill="#292862" opacity="1.000000" stroke="none" 
	d="
M124.769157,124.111160 
	C129.462631,118.369987 131.479233,111.631516 134.390198,105.362206 
	C135.596268,102.764671 136.596558,102.218330 139.129791,103.839691 
	C183.351181,132.143066 216.881104,169.131439 233.382874,219.900467 
	C237.298569,231.947433 239.655136,244.362671 240.685974,257.007690 
	C240.858780,259.127258 240.843857,259.128479 239.136795,259.776489 
	C238.879837,259.095245 238.695618,258.726746 238.166733,258.212830 
	C237.916229,258.021790 237.990570,258.021301 237.968323,258.051086 
	C237.496353,257.527161 237.058228,256.965576 236.586380,255.997009 
	C234.490845,247.587494 231.587830,239.861282 227.868484,232.425674 
	C211.413712,199.529587 187.259979,173.423325 157.343048,152.397308 
	C147.933701,145.784286 138.158569,139.775925 127.791191,134.767227 
	C121.032066,131.501755 120.957565,131.299667 124.769157,124.111160 
z"/>
<path fill="#292862" opacity="1.000000" stroke="none" 
	d="
M262.257111,259.564178 
	C259.847382,254.937408 261.748688,250.124634 262.476074,245.438660 
	C269.249115,201.806198 290.547668,165.935074 321.849304,135.528122 
	C333.945801,123.777351 347.346039,113.673653 361.459625,104.464455 
	C364.478394,102.494682 366.020660,102.123909 367.543854,106.080696 
	C369.808716,111.964043 372.728333,117.595329 375.635559,123.627274 
	C380.540710,129.330032 380.160736,131.828506 373.871979,134.893341 
	C349.967499,146.543259 328.818512,162.072357 310.321167,181.046265 
	C290.081238,201.807648 274.722229,225.785156 265.228210,253.723053 
	C264.880127,256.126678 263.651886,257.699860 262.257111,259.564178 
z"/>
<path fill="#2DAAE0" opacity="1.000000" stroke="none" 
	d="
M409.823975,162.163788 
	C413.059174,161.498032 416.073181,161.310913 418.972321,160.632614 
	C421.779694,159.975784 422.910767,160.486282 422.850739,163.621170 
	C422.694489,171.782562 422.635651,179.953705 422.874817,188.111084 
	C422.976776,191.589325 421.581146,192.132843 418.504883,192.217972 
	C390.636292,192.989151 363.626129,198.159470 337.648499,208.429062 
	C311.748291,218.668030 288.882996,233.556122 268.764160,253.247650 
	C266.310638,251.620987 268.012909,250.206696 268.900391,248.819946 
	C274.053925,240.767303 280.839111,234.020721 287.613739,227.487778 
	C305.483551,210.255524 326.084717,196.890396 348.743561,186.690674 
	C365.977509,178.932922 383.899017,173.443741 402.439819,169.891068 
	C408.994629,168.635086 408.988556,168.603333 409.823975,162.163788 
z"/>
<path fill="#2CA9E0" opacity="1.000000" stroke="none" 
	d="
M234.260162,253.672821 
	C225.208755,246.717041 217.061325,238.661301 207.658508,232.041367 
	C179.344849,212.107513 147.891068,200.251785 113.829437,194.923401 
	C103.459236,193.301147 93.018013,192.359222 82.529793,192.218918 
	C79.578362,192.179398 78.912498,191.128372 78.958176,188.425995 
	C79.096046,180.268646 79.133316,172.104401 78.940872,163.949188 
	C78.865143,160.740021 79.699860,159.779465 82.897728,160.708771 
	C85.271332,161.398544 87.809105,161.523407 90.670876,161.994446 
	C91.914444,162.790131 92.172455,163.793732 92.155197,164.781403 
	C92.099518,167.968109 93.954773,169.102921 96.773865,169.548798 
	C115.485451,172.508316 133.382675,178.243576 150.712540,185.765320 
	C179.861603,198.417023 205.313538,216.194031 226.019806,240.500671 
	C228.934525,243.922195 232.088074,247.137344 234.436890,251.458130 
	C234.663528,252.339737 234.636749,252.850769 234.260162,253.672821 
z"/>
<path fill="#1F76BB" opacity="1.000000" stroke="none" 
	d="
M410.029663,161.498047 
	C411.009705,169.637100 410.985474,169.511978 403.008789,171.057083 
	C365.051270,178.409531 330.565765,193.358139 300.459229,217.940598 
	C288.841614,227.426544 278.489075,238.085831 269.442108,250.033478 
	C268.840363,250.828171 268.081543,251.518250 268.327026,252.999084 
	C268.450043,253.354691 268.403412,253.341019 268.379730,253.345978 
	C267.914703,253.258789 267.546631,253.375473 267.322754,254.046021 
	C267.381989,254.357758 267.350189,254.417801 267.358643,254.450714 
	C267.111938,254.517288 266.856812,254.550934 266.250000,254.430893 
	C265.746674,254.074219 265.594940,253.871216 265.330444,253.308289 
	C268.574249,242.449966 275.086090,233.762695 281.684479,225.247589 
	C306.225494,193.577698 337.557922,170.823578 374.440613,155.525192 
	C378.745148,153.739746 383.210938,152.364441 387.574677,150.718903 
	C393.872437,148.344025 393.901764,148.421814 393.793427,141.594055 
	C397.057648,141.283371 399.820038,140.057327 402.615723,139.096893 
	C405.522400,138.098312 406.722443,138.744431 407.095367,141.962616 
	C407.837219,148.365265 408.984283,154.720963 410.029663,161.498047 
z"/>
<path fill="#2076BB" opacity="1.000000" stroke="none" 
	d="
M234.736557,251.869431 
	C228.897903,245.768311 223.615723,239.406296 217.905899,233.454559 
	C188.688309,202.999191 152.768326,184.371506 112.219879,174.044601 
	C107.579094,172.862686 102.890015,171.773193 98.160057,171.061264 
	C90.981125,169.980743 90.957565,170.137283 91.063766,162.527618 
	C93.434113,155.818939 93.387108,149.124969 94.338387,142.619186 
	C94.872177,138.968582 95.910034,137.610596 99.589668,139.229416 
	C101.695297,140.155762 104.000244,140.629059 106.620193,141.331512 
	C107.284515,141.579453 107.651939,141.873032 107.600220,142.132355 
	C106.303696,148.632843 110.705826,149.861389 115.537766,151.472412 
	C143.698990,160.861588 168.781479,175.599777 191.348633,194.911835 
	C207.222778,208.496277 220.371262,224.246094 231.344208,241.899567 
	C233.200150,244.885391 235.779709,247.773453 234.736557,251.869431 
z"/>
<path fill="#2A3D8E" opacity="1.000000" stroke="none" 
	d="
M234.343277,252.289154 
	C235.066666,248.616562 232.713211,246.369522 231.255798,243.964905 
	C211.935547,212.088562 185.415756,187.748535 153.075027,169.501236 
	C140.282883,162.283646 126.950157,156.392563 112.997856,151.789566 
	C104.133919,148.865280 105.542519,150.552811 107.033371,141.746262 
	C109.851746,135.900238 111.086388,129.898071 112.620140,124.043159 
	C113.719124,119.847900 114.912399,117.734016 119.292984,120.784782 
	C120.892654,121.898834 122.844414,122.507347 124.848167,123.618713 
	C123.705292,131.369232 123.770164,131.245148 131.139130,135.097992 
	C151.380371,145.681015 169.761856,158.778595 186.321747,174.626358 
	C204.374969,191.903244 219.116394,211.461075 229.894302,233.958679 
	C233.071747,240.591248 236.544678,247.231003 237.022858,255.159668 
	C236.879059,255.764359 236.716431,256.046875 236.122681,256.098663 
	C235.518707,255.792511 235.375870,255.679245 235.197037,255.407043 
	C234.895355,254.980347 234.655258,254.678253 234.205994,254.175140 
	C234.001251,253.970581 234.011368,253.989349 234.023041,253.989807 
	C234.126221,253.539261 234.217728,253.088242 234.343277,252.289154 
z"/>
<path fill="#2A3D8E" opacity="1.000000" stroke="none" 
	d="
M393.938965,140.898560 
	C394.028503,141.462311 394.027435,141.634186 394.075531,141.790939 
	C396.300873,149.038055 396.302155,149.040192 389.343842,151.375488 
	C350.926575,164.268860 317.925842,185.542389 290.911438,215.765198 
	C281.075775,226.769028 272.510193,238.810303 266.003662,252.553375 
	C265.629486,253.433380 265.360321,254.017258 264.401367,254.167099 
	C264.586578,248.856018 267.191101,244.325409 269.224243,239.669052 
	C280.468323,213.917557 296.591644,191.486923 317.203430,172.515305 
	C333.719482,157.313522 351.802795,144.112305 372.203644,134.367584 
	C378.826141,131.204269 378.781006,131.109756 375.950989,124.244446 
	C379.666656,122.404831 383.739960,118.154640 386.906891,119.778038 
	C389.417389,121.064926 389.715393,126.745361 390.907806,130.502853 
	C391.958923,133.815033 392.888245,137.165848 393.938965,140.898560 
z"/>
<path fill="#60BBEE" opacity="1.000000" stroke="none" 
	d="
M372.998413,338.951538 
	C396.146393,338.743774 418.925812,338.794830 441.705078,338.752533 
	C446.385315,338.743835 449.268799,341.002380 450.592072,345.259277 
	C451.881866,349.408447 450.260010,352.761200 447.043152,355.401093 
	C444.969543,357.102875 442.439148,357.014923 439.920105,357.013336 
	C407.828857,356.992767 375.737610,357.000183 343.170258,356.886841 
	C343.692444,354.210419 346.301758,354.814270 348.188049,354.029572 
	C349.855499,353.335938 351.286804,352.593384 350.794739,350.457306 
	C350.319916,348.395874 349.483887,346.584503 346.880371,346.793640 
	C344.894806,346.953186 342.930542,347.361694 340.920074,347.206757 
	C335.507996,346.789734 332.515045,344.385315 331.599854,339.231079 
	C341.133850,338.844116 350.503601,338.786133 360.327759,338.729614 
	C363.571075,341.661133 362.296600,345.324615 362.478119,348.682343 
	C362.766174,354.010895 362.974854,354.413025 368.149506,354.463898 
	C373.790375,354.519409 379.432983,354.542603 385.073792,354.438110 
	C387.141113,354.399780 389.167511,354.187256 389.287659,351.380005 
	C389.410431,348.512268 387.701294,347.652161 385.218018,347.566711 
	C382.895538,347.486786 380.570312,347.589020 378.250275,347.473877 
	C372.090179,347.168243 370.809937,345.263062 372.998413,338.951538 
z"/>
<path fill="#60BBEE" opacity="1.000000" stroke="none" 
	d="
M158.176331,356.420593 
	C143.968735,356.853333 129.649078,356.961975 115.329239,356.991119 
	C97.334236,357.027771 79.339088,357.018555 61.344067,356.988495 
	C55.180973,356.978180 51.061779,353.308105 51.019371,347.940643 
	C50.974670,342.283234 54.658115,338.813354 61.086777,338.782410 
	C76.415558,338.708557 91.744881,338.749451 107.542984,338.760956 
	C110.445068,341.858917 109.473740,345.499054 109.434624,348.883484 
	C109.388870,352.841705 110.631042,354.704224 114.866608,354.539032 
	C120.845573,354.305786 126.840675,354.537323 132.828064,354.448822 
	C135.069351,354.415741 137.283234,354.263367 137.295837,351.116455 
	C137.307877,348.108124 135.325348,347.635101 132.972031,347.553253 
	C130.644272,347.472321 128.312424,347.593170 125.987450,347.458405 
	C120.149704,347.120087 118.994225,345.402740 120.780029,339.041656 
	C135.431335,338.743195 149.768295,338.739288 164.576508,338.752563 
	C167.575439,338.940247 167.988083,340.655579 167.619751,342.629913 
	C167.190109,344.932922 165.747498,346.539032 163.385880,346.978516 
	C160.262527,347.559784 157.076355,347.629028 154.023819,346.714752 
	C151.018158,345.814514 149.683304,347.068115 149.052216,349.801636 
	C148.370773,352.753265 150.301743,353.537292 152.516251,354.203003 
	C154.383087,354.764221 156.545395,354.461670 158.176331,356.420593 
z"/>
<path fill="#292664" opacity="1.000000" stroke="none" 
	d="
M267.402100,338.490753 
	C267.708496,329.586517 267.657837,321.089783 267.870819,312.599609 
	C267.918701,310.688995 266.413208,307.349792 269.123657,307.058655 
	C272.560364,306.689545 276.779541,304.892426 279.621490,309.088745 
	C284.286621,315.977173 289.070007,322.785461 293.798889,329.630768 
	C294.324310,330.391327 294.819489,331.172760 296.197906,333.261932 
	C296.197906,324.735931 296.483887,317.686401 296.104828,310.672791 
	C295.816315,305.333954 299.369598,306.885406 302.019531,306.785522 
	C304.673401,306.685516 307.651642,305.745300 307.450775,310.605011 
	C307.086395,319.419495 307.362732,328.260406 307.437317,337.555176 
	C309.201233,343.038849 308.276398,348.188110 308.200287,353.285217 
	C308.168945,355.383331 307.023712,356.357819 304.711426,356.550934 
	C299.590668,356.978607 295.700104,355.701935 293.238586,350.755280 
	C291.473419,347.208099 289.047394,343.998901 286.754944,340.280090 
	C284.581390,336.380249 281.959045,333.194763 280.145630,329.026520 
	C280.345551,332.870758 280.230621,336.329407 280.463318,340.203888 
	C280.600250,344.450562 280.698425,348.280426 280.452820,352.106781 
	C280.268738,354.974945 279.187073,356.515198 275.836761,356.565857 
	C266.570129,356.705933 266.398621,356.720917 266.426819,347.302002 
	C266.435242,344.491089 266.053711,341.627625 267.402100,338.490753 
z"/>
<path fill="#61B8EA" opacity="1.000000" stroke="none" 
	d="
M267.220276,338.117859 
	C267.722717,342.728546 267.886749,347.378143 267.799042,352.023010 
	C267.750397,354.600586 268.239166,355.892120 271.301971,355.952667 
	C278.910858,356.103149 278.903351,356.273438 278.910156,348.706451 
	C278.912842,345.715027 278.938660,342.723572 279.036438,339.256470 
	C281.393066,337.204346 283.778412,337.353088 286.610596,338.570312 
	C290.660278,342.935364 292.957825,347.938110 295.920715,352.507416 
	C297.801849,355.408478 302.988800,357.037903 305.941223,355.740265 
	C307.605804,355.008667 307.220215,353.589905 307.235718,352.349304 
	C307.291748,347.867981 307.265564,343.385590 307.386719,338.461853 
	C310.687286,338.103394 313.871582,338.186737 317.499390,338.211365 
	C319.260284,338.771362 319.774017,340.005646 320.185120,341.250000 
	C322.725128,348.937683 327.669403,353.828156 335.923615,354.941956 
	C336.750824,355.053619 337.487640,355.418182 338.076294,356.469208 
	C328.316162,356.888397 318.501038,356.980804 308.685852,356.990143 
	C273.390045,357.023712 238.094269,357.029236 202.331390,356.940063 
	C202.009613,355.312256 203.237732,355.079926 204.360168,354.859802 
	C212.254593,353.311676 216.691254,348.780396 216.885040,340.515198 
	C216.900742,339.845123 217.201492,339.230255 217.834961,338.408691 
	C220.757233,338.199127 223.383987,338.231049 226.446091,338.209045 
	C229.592773,341.329895 228.262497,345.147125 228.464462,348.687164 
	C228.766357,353.978943 229.012222,354.423431 234.185196,354.477661 
	C239.835938,354.536896 245.488449,354.554138 251.139267,354.454803 
	C253.229355,354.418091 255.210571,354.154144 255.314255,351.346436 
	C255.420990,348.456085 253.696198,347.630280 251.219330,347.549347 
	C249.058823,347.478790 246.896912,347.551910 244.737518,347.475220 
	C238.040237,347.237457 236.653763,345.245514 238.896454,338.371582 
	C248.416565,338.125580 257.596649,338.140198 267.220276,338.117859 
z"/>
<path fill="#2C2A68" opacity="1.000000" stroke="none" 
	d="
M120.993713,338.299194 
	C120.511116,346.196899 120.511116,346.197052 127.626884,346.199036 
	C129.450104,346.199524 131.311310,346.437286 133.089294,346.153717 
	C138.104675,345.353729 139.369446,347.590942 138.970200,352.235962 
	C138.735397,354.967896 138.073425,356.008240 135.229736,355.952271 
	C127.442642,355.799072 119.648239,355.790405 111.861649,355.955902 
	C108.939934,356.017975 108.139183,354.881927 108.234200,352.168823 
	C108.379105,348.031525 108.232491,343.884033 108.110809,339.259399 
	C108.890755,329.484314 108.308952,320.168549 108.314018,310.866028 
	C108.315765,307.653198 109.098450,306.527985 112.453476,306.641022 
	C119.766983,306.887421 127.107056,306.974915 134.411499,306.619019 
	C138.652176,306.412415 137.924667,308.933777 137.902847,311.357269 
	C137.881424,313.738708 138.733292,316.586334 134.433456,316.080505 
	C131.479065,315.732971 128.444565,315.899994 125.458038,316.061859 
	C123.937897,316.144226 121.489830,315.045959 121.069054,316.994568 
	C120.490471,319.674042 120.927628,322.589935 121.123558,325.390961 
	C121.141518,325.647614 122.558693,325.958344 123.334167,325.982117 
	C125.827911,326.058716 128.359650,326.275116 130.813843,325.955139 
	C134.979935,325.411957 136.136139,326.926117 136.051620,331.089569 
	C135.977173,334.756805 134.776810,335.653564 131.451019,335.334167 
	C128.813049,335.080841 126.128899,335.351624 123.469276,335.265564 
	C121.581810,335.204498 120.620003,335.859894 120.993713,338.299194 
z"/>
<path fill="#272463" opacity="1.000000" stroke="none" 
	d="
M239.188644,337.685608 
	C238.876038,346.238251 238.876038,346.238251 246.776810,346.238586 
	C248.775620,346.238678 250.797440,346.431915 252.768219,346.196991 
	C256.386780,345.765533 257.100983,347.381836 257.232941,350.731110 
	C257.397491,354.907135 256.080261,356.158539 251.925995,355.960419 
	C244.779846,355.619659 237.604156,355.778992 230.444229,355.910645 
	C227.895172,355.957489 226.848251,355.218628 226.954620,352.534576 
	C227.132599,348.044220 227.009537,343.541901 226.947311,338.599854 
	C226.916183,328.999176 227.054245,319.841736 226.924713,310.688110 
	C226.884201,307.825134 227.338715,306.544037 230.661469,306.669861 
	C237.976929,306.946930 245.323380,307.020569 252.630890,306.653656 
	C256.765778,306.446075 256.302155,308.785889 256.229919,311.309631 
	C256.162872,313.651367 257.100708,316.496521 252.818878,316.066620 
	C249.522156,315.735657 246.134735,316.284790 242.843567,315.927521 
	C238.960114,315.505951 238.781540,317.692078 239.142868,320.401703 
	C239.455704,322.747498 237.434280,326.591187 242.625870,326.060211 
	C244.603149,325.858002 246.618469,326.026672 248.616455,326.027954 
	C254.129822,326.031403 255.510391,328.026642 254.245453,333.556549 
	C253.784775,335.570557 252.504272,335.205963 251.267578,335.226379 
	C248.271393,335.275848 245.273529,335.217682 242.277054,335.257233 
	C240.855072,335.275970 239.071350,334.853333 239.188644,337.685608 
z"/>
<path fill="#272463" opacity="1.000000" stroke="none" 
	d="
M373.282532,338.336914 
	C372.738983,346.225739 372.738983,346.225861 379.863983,346.227753 
	C381.857208,346.228302 383.889984,346.481110 385.835754,346.177307 
	C390.473846,345.453094 391.384827,347.570221 391.248871,351.760620 
	C391.141388,355.073639 390.170349,356.029449 386.950226,355.940155 
	C379.647369,355.737732 372.329498,355.708710 365.029053,355.950775 
	C361.630676,356.063416 360.743286,354.833252 360.930389,351.658295 
	C361.164429,347.686859 360.958710,343.689453 360.862488,339.217194 
	C360.850128,329.260803 361.020386,319.789429 360.922882,310.320831 
	C360.894135,307.529266 361.662262,306.620026 364.516754,306.692322 
	C371.992188,306.881622 379.483307,306.961792 386.952850,306.679596 
	C391.344360,306.513672 390.126282,309.387726 390.203827,311.617920 
	C390.280640,313.826599 390.956512,316.479675 387.023468,316.050537 
	C384.559418,315.781708 382.042114,316.000702 379.548706,316.001007 
	C372.982910,316.001801 371.799377,317.593231 373.068878,324.174042 
	C373.371307,325.741669 374.079620,326.036194 375.379425,326.026093 
	C377.872620,326.006683 380.402496,326.296265 382.851501,325.967957 
	C387.152344,325.391388 388.630310,326.754547 388.370911,331.281555 
	C388.177643,334.654297 387.166168,335.559875 384.050171,335.291290 
	C381.410187,335.063812 378.733154,335.306244 376.075958,335.225739 
	C374.115692,335.166382 372.739655,335.537964 373.282532,338.336914 
z"/>
<path fill="#292664" opacity="1.000000" stroke="none" 
	d="
M158.653931,356.781311 
	C156.526245,356.407593 154.752563,356.081970 153.003799,355.654449 
	C146.587708,354.085968 146.392258,353.456909 148.364746,347.332458 
	C149.310364,344.396332 150.438950,343.722809 153.213974,345.159180 
	C155.916763,346.558167 158.970871,346.606415 161.949768,346.260590 
	C166.437286,345.739594 167.547302,343.540253 165.382355,338.931885 
	C163.240906,336.335754 160.331802,335.855652 157.810333,334.690216 
	C149.489853,330.844330 146.175690,324.773132 148.038986,316.779388 
	C149.574280,310.192810 155.747940,305.970123 164.011002,305.881134 
	C166.842682,305.850616 169.633499,306.076721 172.385208,306.887421 
	C178.032471,308.551117 177.979645,308.670624 176.086914,314.309509 
	C175.089233,317.281891 173.940414,317.726837 171.161484,316.371185 
	C168.812256,315.225250 166.106461,314.654449 163.395233,315.439240 
	C161.760666,315.912384 160.253006,316.526093 159.869308,318.504944 
	C159.478210,320.521851 159.994598,322.240540 161.761597,323.238831 
	C164.352051,324.702362 167.079269,325.923248 169.743500,327.256958 
	C174.346420,329.561157 178.254272,332.485474 179.423553,338.313629 
	C182.010925,348.766754 176.479965,356.153259 166.227386,356.480408 
	C165.070724,356.517334 163.911789,356.455200 162.365234,356.696289 
	C160.989960,356.834320 160.004669,356.808472 158.653931,356.781311 
z"/>
<path fill="#2A2765" opacity="1.000000" stroke="none" 
	d="
M218.036530,337.801056 
	C218.206909,350.199799 214.300415,354.775177 202.192413,356.642334 
	C201.166092,356.839722 200.467865,356.844727 199.419830,356.850220 
	C195.827194,356.124695 192.465591,356.652252 189.214615,355.828766 
	C185.479324,354.882660 184.531174,352.649689 185.477051,349.094330 
	C186.833344,343.996338 187.928970,343.038635 192.038864,344.042725 
	C193.818680,344.477478 195.587708,344.977386 197.407211,345.167114 
	C202.651505,345.713898 204.215546,343.833221 202.962555,338.152924 
	C199.958160,336.301270 196.928101,334.952942 194.067734,333.309296 
	C187.815491,329.716553 185.315323,324.419159 186.588715,317.923462 
	C187.872787,311.373291 192.671814,306.893341 199.616333,306.073608 
	C203.419724,305.624695 207.232071,305.757477 210.984573,306.846527 
	C216.674240,308.497864 216.759781,308.803345 214.888794,314.307922 
	C213.914246,317.175201 212.805573,317.895355 209.959854,316.401550 
	C207.794449,315.264893 205.240540,314.784332 202.684296,315.307526 
	C200.604797,315.733185 198.876923,316.602325 198.478943,318.948792 
	C198.123688,321.043488 199.201859,322.558533 200.860107,323.490997 
	C203.456665,324.951111 206.195587,326.157837 208.872772,327.474792 
	C213.202423,329.604614 216.700516,332.492920 218.036530,337.801056 
z"/>
<path fill="#292664" opacity="1.000000" stroke="none" 
	d="
M338.514923,356.836975 
	C327.302307,355.458679 320.480133,349.654572 318.078613,338.483521 
	C317.337982,331.654633 317.206635,325.247986 319.816315,319.016235 
	C325.785583,304.761841 340.546478,303.782654 350.396606,308.010986 
	C354.975677,309.976685 351.008606,312.728363 350.819885,315.054718 
	C350.704926,316.471436 350.398315,318.076080 347.661316,317.212280 
	C336.507477,313.692291 331.185883,317.558899 330.134094,329.483307 
	C329.866364,332.518585 330.449310,335.445679 331.525391,338.620270 
	C334.161194,345.283997 338.743134,347.849884 346.018188,345.471832 
	C351.527374,343.670959 351.014679,347.610718 352.257812,350.338043 
	C354.040710,354.249451 350.811951,354.339447 348.653564,355.098114 
	C346.953552,355.695648 345.134399,355.954224 343.031158,356.568237 
	C341.428955,356.795410 340.163727,356.817657 338.514923,356.836975 
z"/>
<path fill="#62BDEF" opacity="1.000000" stroke="none" 
	d="
M287.781921,389.829834 
	C287.781433,383.352478 287.720764,377.355042 287.824890,371.360443 
	C287.850891,369.864227 286.926697,367.782593 289.160400,367.059265 
	C291.524780,366.293610 293.276123,367.316315 294.628906,369.379120 
	C297.436310,373.659882 300.359253,377.864899 304.005920,383.237244 
	C304.005920,377.953522 304.067902,373.908691 303.980072,369.867096 
	C303.935394,367.809937 304.583527,366.832062 306.810303,366.841309 
	C308.985657,366.850342 309.758575,367.763092 309.744751,369.836395 
	C309.699158,376.665283 309.759186,383.494904 309.708832,390.323700 
	C309.698608,391.711273 310.269531,393.580231 308.164917,394.011353 
	C306.326691,394.387939 304.659210,394.233704 303.457245,392.242920 
	C300.361633,387.115753 297.070648,382.106537 293.012177,375.719482 
	C293.012177,381.379761 293.087036,385.706909 292.973358,390.029114 
	C292.931091,391.635162 293.876007,393.903290 290.822693,394.134460 
	C287.773041,394.365387 287.689697,392.460907 287.781921,389.829834 
z"/>
<path fill="#66BFF0" opacity="1.000000" stroke="none" 
	d="
M266.165192,369.827393 
	C270.814636,376.280060 271.223206,384.335083 267.434052,389.683014 
	C264.291565,394.118256 257.878662,395.720795 251.101349,394.244293 
	C248.534271,393.685059 247.941223,392.536774 247.979706,390.191895 
	C248.086304,383.698608 248.102722,377.200714 247.973465,370.708282 
	C247.924500,368.249329 248.747620,367.257507 251.230591,366.769775 
	C256.570923,365.720795 261.464111,366.205444 266.165192,369.827393 
z"/>
<path fill="#69C0F0" opacity="1.000000" stroke="none" 
	d="
M185.698639,390.488037 
	C183.805740,388.243103 183.410461,383.909973 180.870071,384.446075 
	C178.332565,384.981567 179.249359,388.940582 179.199753,391.463593 
	C179.154480,393.766174 177.958618,394.162903 176.023392,394.183136 
	C173.834793,394.205994 173.127853,393.187714 173.142181,391.145142 
	C173.191132,384.164490 173.154037,377.183319 173.165497,370.202332 
	C173.167114,369.221161 173.106522,368.220825 174.004486,367.472870 
	C178.001709,364.143372 189.704803,366.486938 192.048187,371.177429 
	C193.800232,374.684235 193.550629,378.339081 190.430984,380.662323 
	C187.692795,382.701599 188.405228,384.022034 189.880264,386.173859 
	C191.442825,388.453369 192.618683,390.997986 194.073196,393.625092 
	C190.299713,394.559570 187.285095,394.877411 185.698639,390.488037 
z"/>
<path fill="#69C0F0" opacity="1.000000" stroke="none" 
	d="
M320.571777,392.619263 
	C314.943909,386.733429 313.752686,379.847015 316.936554,373.196686 
	C319.268707,368.325378 324.203125,365.643158 330.071777,366.159088 
	C331.379150,366.274017 332.666992,366.664917 333.950653,366.981934 
	C335.397095,367.339203 336.397644,368.050598 335.899902,369.786865 
	C335.411102,371.491821 334.413574,372.025696 332.565277,371.849213 
	C323.394257,370.973541 318.964966,377.123199 322.430634,385.796722 
	C322.993134,387.204620 323.779114,388.484161 325.239227,389.151184 
	C327.074463,389.989624 329.442108,391.009644 330.570251,388.994019 
	C331.443420,387.433990 332.115417,384.534760 329.794006,383.250244 
	C327.733948,382.110382 327.584534,380.471741 328.485779,379.206268 
	C329.940613,377.163452 332.470093,378.458740 334.524353,378.249390 
	C336.158478,378.082886 336.941833,378.982819 336.931763,380.638397 
	C336.910583,384.125519 336.898529,387.613342 336.948456,391.099945 
	C336.974548,392.921753 336.086884,393.642761 334.376678,394.115417 
	C329.677582,395.414124 325.198212,395.214630 320.571777,392.619263 
z"/>
<path fill="#5EB6EA" opacity="1.000000" stroke="none" 
	d="
M202.504028,338.033936 
	C205.166428,338.890320 205.993134,340.692108 205.369614,343.096680 
	C204.707275,345.650970 202.545441,346.237091 200.362366,346.526947 
	C197.330826,346.929504 194.350250,346.333557 191.618225,345.085388 
	C189.335022,344.042297 187.692535,344.011292 187.469040,346.861115 
	C187.273804,349.350891 183.285202,352.258942 188.185471,354.355255 
	C191.469147,355.759979 194.929169,356.079620 198.733521,356.661133 
	C187.010330,356.922211 174.950653,356.993713 162.433105,356.962677 
	C163.102997,356.630615 164.221420,356.327820 165.359924,356.183105 
	C174.877136,354.973480 178.936005,350.186768 179.504898,339.099213 
	C187.095490,338.633453 194.608887,339.261505 202.504028,338.033936 
z"/>
<path fill="#35ADE1" opacity="1.000000" stroke="none" 
	d="
M273.839661,260.848358 
	C272.705292,273.378174 264.219269,281.079895 251.961456,281.042725 
	C239.963058,281.006348 230.902466,272.697266 230.064362,260.264282 
	C234.890884,268.212250 241.648865,273.354889 250.930191,273.717468 
	C260.458527,274.089752 267.850372,269.826996 273.081482,261.359253 
	C273.413330,260.965607 273.521576,260.833099 273.839661,260.848358 
z"/>
<path fill="#66BFF0" opacity="1.000000" stroke="none" 
	d="
M239.445312,393.987640 
	C237.346130,390.660370 236.503830,386.774475 231.114410,387.868866 
	C228.584290,388.382660 226.638855,388.528687 226.176056,391.409454 
	C225.688217,394.445953 223.421646,394.643372 221.281662,393.959900 
	C218.578064,393.096405 220.535919,391.148193 220.968369,389.876129 
	C223.211578,383.277527 225.648010,376.744659 228.003906,370.184143 
	C228.711349,368.214142 229.532349,366.736725 232.155655,366.777832 
	C234.704071,366.817780 235.631989,368.130463 236.353500,370.169464 
	C238.678833,376.740723 240.944824,383.337402 243.475922,389.829865 
	C245.053146,393.875580 243.203812,394.499756 239.445312,393.987640 
z"/>
<path fill="#62BDEF" opacity="1.000000" stroke="none" 
	d="
M206.424530,382.375183 
	C203.585815,388.615936 204.276199,389.730927 210.479095,389.874390 
	C211.930084,389.907959 213.718201,389.293243 214.703659,390.648621 
	C215.461899,391.691467 215.573959,393.250671 213.890427,393.941101 
	C213.303650,394.181793 212.579681,394.093475 211.917480,394.143768 
	C198.923050,395.130676 198.922989,395.130341 198.923050,382.310486 
	C198.923065,378.647186 198.913925,374.983856 198.929672,371.320618 
	C198.933945,370.324585 198.825012,369.274017 199.095627,368.343781 
	C199.775848,366.005341 201.874954,366.811218 203.306458,366.942017 
	C207.125488,367.290955 211.282104,365.434723 214.676834,368.165314 
	C215.489532,368.819000 215.135178,370.844849 213.232742,371.062866 
	C211.916183,371.213776 210.569092,371.216675 209.243393,371.144073 
	C206.674301,371.003448 204.795090,371.147736 204.835785,374.697723 
	C204.873688,378.002899 206.608292,378.109619 208.968353,377.968658 
	C209.797501,377.919128 210.632797,377.977203 211.465286,377.978180 
	C212.758575,377.979706 213.743271,378.295746 213.806854,379.875641 
	C213.877975,381.642303 212.912277,382.218323 211.347595,382.231781 
	C209.849243,382.244629 208.350983,382.271332 206.424530,382.375183 
z"/>
<path fill="#69C0F0" opacity="1.000000" stroke="none" 
	d="
M276.162140,391.453979 
	C276.156555,384.192383 276.203674,377.373657 276.130341,370.556274 
	C276.105591,368.252777 276.453094,366.782257 279.326691,366.784760 
	C282.026550,366.787109 282.753357,367.908203 282.719788,370.377533 
	C282.627136,377.194458 282.694427,384.013489 282.685303,390.831665 
	C282.683044,392.504272 282.846313,394.377045 280.451569,394.539215 
	C278.464081,394.673798 276.238770,394.968689 276.162140,391.453979 
z"/>
<path fill="#2076BB" opacity="1.000000" stroke="none" 
	d="
M264.029846,254.426300 
	C264.555573,253.788116 265.015808,253.483643 265.717407,253.042511 
	C265.972229,253.098053 265.985718,253.290253 266.013977,253.771118 
	C266.199585,254.201416 266.370422,254.343079 266.695007,254.780029 
	C265.344574,256.749847 263.840363,258.424408 262.150757,259.945740 
	C262.631653,258.115051 263.298004,256.437531 264.029846,254.426300 
z"/>
<path fill="#2CA9E0" opacity="1.000000" stroke="none" 
	d="
M235.779846,256.205353 
	C235.915878,255.801239 236.140213,255.734528 236.703125,255.574829 
	C237.374680,256.110260 237.707657,256.738708 237.993347,257.723999 
	C236.849197,258.114288 236.392914,257.282257 235.779846,256.205353 
z"/>
<path fill="#69C0F0" opacity="1.000000" stroke="none" 
	d="
M274.285187,260.887512 
	C274.049500,260.996094 273.683563,261.095825 273.494324,261.096954 
	C273.199463,260.475220 273.238129,259.754272 273.916321,259.643311 
	C274.796204,259.499390 274.761780,260.155548 274.285187,260.887512 
z"/>
<path fill="#2DAAE0" opacity="1.000000" stroke="none" 
	d="
M267.045471,254.986191 
	C266.546539,254.968872 266.328217,254.770294 266.111237,254.269653 
	C266.262726,254.093033 266.496674,254.126312 267.048889,254.321625 
	C267.367096,254.483627 267.242157,254.897079 267.045471,254.986191 
z"/>
<path fill="#2CA9E0" opacity="1.000000" stroke="none" 
	d="
M234.042358,254.287323 
	C234.365784,254.179855 234.730301,254.389130 235.112946,254.942169 
	C234.781845,255.058640 234.432648,254.831345 234.042358,254.287323 
z"/>
<path fill="#2DAAE0" opacity="1.000000" stroke="none" 
	d="
M267.629211,254.287292 
	C267.502594,254.009369 267.623169,253.660980 268.049896,253.331757 
	C268.196167,253.639557 268.036285,253.928192 267.629211,254.287292 
z"/>
<path fill="#2CA9E0" opacity="1.000000" stroke="none" 
	d="
M237.920319,258.357574 
	C238.245789,258.292236 238.575348,258.562653 238.930298,259.174622 
	C238.611938,259.241882 238.268173,258.967621 237.920319,258.357574 
z"/>
<path fill="#EDF3F8" opacity="1.000000" stroke="none" 
	d="
M286.950562,338.486908 
	C284.667603,338.817200 282.330750,338.816956 279.556427,338.798706 
	C279.118958,334.845947 279.118958,330.911102 279.118958,325.900909 
	C282.035645,330.496765 284.466156,334.326569 286.950562,338.486908 
z"/>
<path fill="#FBFDFF" opacity="1.000000" stroke="none" 
	d="
M254.023560,375.273254 
	C253.527756,370.636719 255.924286,370.440552 258.892334,371.433441 
	C263.097290,372.840210 263.866211,376.436829 263.897675,380.215973 
	C263.930450,384.149017 263.326324,387.963684 258.905792,389.508301 
	C255.917480,390.552521 253.707108,390.324463 253.978485,386.151978 
	C254.203415,382.693359 254.023819,379.208435 254.023560,375.273254 
z"/>
<path fill="#F4FAFE" opacity="1.000000" stroke="none" 
	d="
M179.134369,376.769867 
	C179.467102,374.032104 177.802979,370.513031 182.488617,370.863922 
	C185.511200,371.090240 187.149475,372.734222 186.834335,375.714081 
	C186.489944,378.970459 184.132111,379.990875 181.136658,379.949036 
	C179.220993,379.922241 179.147507,378.596222 179.134369,376.769867 
z"/>
<path fill="#F4FAFE" opacity="1.000000" stroke="none" 
	d="
M234.326660,383.576904 
	C227.845215,383.942230 227.732346,383.479156 231.976105,374.125732 
	C233.591827,377.248962 234.657242,380.132874 234.326660,383.576904 
z"/>
</svg>